<?xml version="1.0" encoding="UTF-8"?>
<svg width="32px" height="32px" viewBox="0 0 32 32" version="1.1" xmlns="http://www.w3.org/2000/svg" xmlns:xlink="http://www.w3.org/1999/xlink">
    <!-- Generator: sketchtool 52.6 (67491) - http://www.bohemiancoding.com/sketch -->
    <title>28DB414E-04E1-419C-A750-3963FD787298</title>
    <desc>Created with sketchtool.</desc>
    <g id="Symbols" stroke="none" stroke-width="1" fill="none" fill-rule="evenodd">
        <g id="Icon-/-clock" fill="#FFFFFF">
            <path d="M17,9 L15,9 L15,17.5245902 L22,22 L23,20.252459 L17,16.4590164 L17,9 Z M16,27 C9.9225,27 5,22.0775 5,16 C5,9.9225 9.9225,5 16,5 C22.0775,5 27,9.9225 27,16 C27,22.0775 22.0775,27 16,27 Z M15.986,2 C8.258,2 2,8.272 2,16 C2,23.728 8.258,30 15.986,30 C23.728,30 30,23.728 30,16 C30,8.272 23.728,2 15.986,2 Z" id="Fill-1"></path>
        </g>
    </g>
</svg>